# xmcd
#
# Track frame offsets:
# 150
# 16308
# 34572
# 48685
# 63745
# 78544
# 89268
# 102162
# 116961
# 127236
# 145448
# 159547
# 169752
# 180020
# 190399
# 202540
#
# Disc length: 2942 seconds
#
#
# Revision: 0
# Processed by: cddbd v1.5.2PL0 Copyright (c) Steve Scherf et al.
# Submitted via: FreeRIP 2.944 
#
DISCID=db0b7c10
DTITLE=Diversos - Sertanejas Eternas
DYEAR=1900
DGENRE=Country
TTITLE0=Lembrança(Zé Fortuna&Pitangueira)
TTITLE1=Igrejinha da Serra(Caçula&Marinheiro)
TTITLE2=Flor do Cafézal(Carolina&Robertinho)
TTITLE3=Capelinha do chico Mineiro(Zico&Zéca)
TTITLE4=O Berrante de Madalena(Silveira&Silverinha)
TTITLE5=Amor Platonico(Belmonte e Amarai)
TTITLE6=Ladrão de Beijos(Pedro Bento&Zé da Estrada)
TTITLE7=Recordação(Pedro Bento &Zé da Estrada)
TTITLE8=Orgulho(Tibagi&Miltinho)
TTITLE9=Mãe Amorosa(Abel&Caim)
TTITLE10=Boiadero Errante(Canario&Passarinho)
TTITLE11=Encontro de Nossa Sra Aparecida(Leoncio&Leonel)
TTITLE12=Fugindo da Branca Luz(Regis Beno)
TTITLE13=Chamas Dolorosas(Portela&Dion)
TTITLE14=Canção do Regresso(Milton&Miranda)
TTITLE15=Cavalo Pampa(Os trovadores
EXTD=
EXTT0=
EXTT1=
EXTT2=
EXTT3=
EXTT4=
EXTT5=
EXTT6=
EXTT7=
EXTT8=
EXTT9=
EXTT10=
EXTT11=
EXTT12=
EXTT13=
EXTT14=
EXTT15=
PLAYORDER=
